<svg fill="none" height="36" viewBox="0 0 133 36" width="133" xmlns="http://www.w3.org/2000/svg"><g clip-rule="evenodd" fill-rule="evenodd"><path d="m3.81677 27.9649c2.3863.7597 4.93566-.4585 5.66543-2.707l2.6998-8.7472c.7298-2.2486-.6256-4.7102-3.0118-5.4701l-.19924-.0633c-2.38617-.7599-4.93567.4582-5.66529 2.7068l-2.699844 8.7473c-.729766 2.2487.625534 4.7102 3.011834 5.4701z" fill="#084f99"/><path d="m32.3216 3.10096c.5093-1.23128 1.4509-2.166788 2.5561-2.671565.0556-.025329.1105-.052872.167-.075986.0315-.013426.0639-.02436.0958-.037094.9115-.3511428 1.918-.4135652 2.885-.105744l.1992.06353c2.3863.759729 3.6571 3.481949 2.8239 6.049159 0 0-6.5367 22.08284-6.5423 22.10024-1.7082 5.0832-7.1346 7.7149-11.8051 6.3938 0 0-1.259-.3738-1.7783-.7479 4.6419-.9975 10.4719-28.72815 11.3987-30.96844z" fill="#5eb7ff"/><path d="m4.57425 30.8851c1.00781.3208 2.04622.3408 3.03056.1123.15649-.0327.30864-.0767.45843-.1271 1.92424-.6105 3.57836-2.1845 4.27996-4.3465l5.0935-16.81164c.8406-2.55448 3.4651-4.02424 5.8449-3.26645l.1992.06339c2.3862.75986 3.6571 3.48195 2.8239 6.0493 0 0-4.8465 15.9306-5.5232 17.2556-4.9454 8.96-14.23508 4.582-16.86744.8326.15076.063.3025.1246.46094.175z" fill="#1479fb"/><g fill="#2b2b2b"><path d="m113.736 13.2806.013-.0962c0-.0596-.016-.1208-.05-.1868-.134-.2648-.884-.8004-2.091-.904-.105-.009-.212-.0135-.318-.0135-.852 0-1.804.3496-1.998.7335l-.017.0357-4.925 12.1183-4.7424-12.1656c-.1992-.3686-1.3244-.77-2.1647-.77-.0477 0-.1242-.0033-.2088-.0073-.128-.0061-.3031-.0143-.3707-.0071-1.1822.1245-1.6054.6308-1.7526.9214-.0326.0647-.0491.124-.0503.1816l.0093.099c.1889.479 6.6412 16.5618 6.9912 17.4331l.022.0241c.252.2706 1.47.6562 2.272.6562.798 0 1.95-.2954 2.201-.5641l.022-.0239 7.144-17.4188z"/><path d="m89.4912 24.4434c0 1.252-.3143 2.1515-.8848 2.5329-.4848.2932-1.3969.6366-3.035.6366l-.1861-.0012c-1.3955 0-2.4738-.258-3.2034-.7664-.5743-.4003-.9036-.9524-.9036-1.515 0-1.7074.9619-2.017 3.8523-2.0807h4.3606zm4.0189 6.2203c.0211-.0473.0436-.1067.0436-.175v-12.1926c-.0245-2.3008-.7695-3.9521-2.2143-4.9062-1.3855-.8916-3.2501-1.3444-5.5398-1.3444l-.3875-.0013c-2.9453 0-5.608 1.0481-6.9508 2.7359-.0213.0327-.0326.0619-.0446.1001-.153.4887.4929 1.2362 1.1578 1.7238.5837.4283 1.2116.6942 1.639.6942.0949-.0189.4876-.2756.5689-.3533.4485-.4283 1.6648-1.4279 3.2726-1.461l.6957-.0176c1.3326-.0001 2.633.6092 3.2314 1.211.3516.3532.5181.8148.5095 1.4109v1.7982h-5.8221c-2.0229.0234-3.5854.5777-4.6415 1.6476-1.0591 1.0494-1.5954 2.3881-1.5954 3.9805 0 1.6672.6138 3.0528 1.8242 4.1184 1.1993 1.1369 3.7243 1.666 5.6973 1.6884 1.2861 0 2.3104-.1592 3.0419-.4732.447-.1817.8291-.4255 1.1396-.7258l.356-.3445v.7109c0 .0694.0227.1287.045.1775.2095.4582 1.1766.6667 1.9861.6667.8093 0 1.7764-.2092 1.9874-.6692z"/><path d="m118.723 19.3641c.233-1.8319.805-2.6247 1.592-3.2514.804-.641 1.777-.7952 3.186-.845 1.193-.0434 2.68.4545 3.374 1.1314.669.6732 1.058 1.6556 1.16 2.9222l.018.2228-9.36.055zm13.169 8.8788c.135-.5069-.523-1.2654-1.193-1.7556-.579-.4252-1.19-.6824-1.676-.7056-.267.0003-.434.1405-.479.1835-1.16 1.0489-2.474 1.5783-3.908 1.5783-1.293 0-3.543-.4465-4.403-1.285-.851-.7607-1.381-1.9069-1.446-3.1387l-.011-.2217.224.0033c.121.0019 12.12.1827 12.316.1827.193-.0021.372-.0849.514-.239.542-.5862.568-2.24.498-3.1248l-.001-.0142c-.025-2.5881-.849-4.6522-2.447-6.135-1.649-1.5264-4.472-2.3819-7.36-2.2303-1.164.0606-2.057.219-2.895.5136-.988.3434-1.891.9091-2.684 1.6817-.78.7611-1.428 1.8114-1.924 3.1218-.495 1.2854-.746 2.9146-.746 4.8436 0 2.0074.287 3.6587.856 4.9086.527 1.3243 1.224 2.3663 2.076 3.1067.426.3486.903.6541 1.375.8793 2.056 1.0905 3.962 1.2245 5.354 1.3222l.115.0082c.116.0036 4.321.1133 7.775-3.3296.047-.0653.061-.1183.07-.154z"/><path d="m71.2857 30.7019c.3638-.9464 5.3584-17.2153 5.5113-17.7173l.0135-.1051c0-.0591-.0163-.1198-.0498-.186-.0832-.1657-.8252-.8296-2.1287-.983-.1418-.0163-.2869-.0246-.4299-.0246-.9127 0-1.9065.3253-2.0852.6824l-.02.0485-3.5185 12.4006-4.5616-12.4396c-.1312-.3718-1.0328-.7342-1.8211-.7342-.8145 0-1.8094.3774-1.9358.7342l-.1215-.0423-.0014.0038.1229.0385-3.921 12.2237-3.7648-12.1101-.032-.0758c-.1852-.3511-1.165-.772-2.1166-.772-.0877 0-.4449.0329-.6367.0506-.0787.0073-.1438.0133-.1808.0163-1.2335.1004-1.6631.6989-1.7905.9516-.0343.0678-.0509.1294-.0509.1887l.0025.0478-.0022.0129 5.83 17.7554c.1798.4065 1.6251.6654 2.5481.6654.9476 0 2.4767-.2496 2.7752-.6427l3.3842-11.1909 4.0178 11.1709c.1653.4016 1.625.6634 2.5559.6634 1.0411 0 2.2388-.2211 2.4076-.6311z"/></g></g></svg>