<?xml version="1.0" encoding="UTF-8"?>
<svg xmlns="http://www.w3.org/2000/svg" xmlns:xlink="http://www.w3.org/1999/xlink" width="200px" height="54px" viewBox="0 0 199 54" version="1.1">
<g id="surface1">
<path style=" stroke:none;fill-rule:evenodd;fill:rgb(3.137255%,30.980392%,60%);fill-opacity:1;" d="M 5.710938 41.949219 C 9.28125 43.085938 13.097656 41.257812 14.1875 37.886719 L 18.226562 24.765625 C 19.320312 21.394531 17.292969 17.699219 13.722656 16.5625 L 13.421875 16.464844 C 9.851562 15.324219 6.039062 17.152344 4.945312 20.527344 L 0.90625 33.648438 C -0.183594 37.019531 1.84375 40.710938 5.414062 41.851562 Z M 5.710938 41.949219 "/>
<path style=" stroke:none;fill-rule:evenodd;fill:rgb(36.862745%,71.764706%,100%);fill-opacity:1;" d="M 48.359375 4.652344 C 49.121094 2.804688 50.53125 1.402344 52.183594 0.644531 C 52.269531 0.605469 52.351562 0.566406 52.433594 0.53125 C 52.484375 0.511719 52.53125 0.492188 52.578125 0.472656 C 53.941406 -0.0507812 55.449219 -0.144531 56.894531 0.316406 L 57.191406 0.410156 C 60.765625 1.550781 62.664062 5.632812 61.417969 9.484375 C 61.417969 9.484375 51.636719 42.609375 51.628906 42.636719 C 49.074219 50.261719 40.953125 54.207031 33.964844 52.226562 C 33.964844 52.226562 32.082031 51.664062 31.304688 51.105469 C 38.25 49.609375 46.972656 8.011719 48.359375 4.652344 Z M 48.359375 4.652344 "/>
<path style=" stroke:none;fill-rule:evenodd;fill:rgb(7.843137%,47.45098%,98.431373%);fill-opacity:1;" d="M 6.84375 46.328125 C 8.351562 46.808594 9.90625 46.839844 11.378906 46.496094 C 11.613281 46.445312 11.839844 46.382812 12.066406 46.304688 C 14.945312 45.390625 17.417969 43.027344 18.46875 39.785156 L 26.089844 14.566406 C 27.347656 10.738281 31.273438 8.53125 34.835938 9.667969 L 35.132812 9.761719 C 38.703125 10.902344 40.605469 14.988281 39.359375 18.835938 C 39.359375 18.835938 32.105469 42.734375 31.09375 44.722656 C 23.695312 58.160156 9.796875 51.59375 5.855469 45.96875 C 6.082031 46.0625 6.308594 46.15625 6.546875 46.230469 Z M 6.84375 46.328125 "/>
<path style=" stroke:none;fill-rule:evenodd;fill:rgb(16.862745%,16.862745%,16.862745%);fill-opacity:1;" d="M 170.175781 19.921875 L 170.195312 19.777344 C 170.195312 19.6875 170.171875 19.59375 170.121094 19.496094 C 169.921875 19.097656 168.796875 18.296875 166.992188 18.140625 C 166.835938 18.125 166.675781 18.121094 166.515625 18.121094 C 165.242188 18.121094 163.816406 18.644531 163.527344 19.21875 L 163.5 19.273438 L 156.132812 37.453125 L 149.035156 19.203125 C 148.738281 18.648438 147.054688 18.046875 145.796875 18.046875 C 145.726562 18.046875 145.613281 18.042969 145.484375 18.035156 C 145.292969 18.027344 145.03125 18.015625 144.929688 18.027344 C 143.160156 18.214844 142.527344 18.972656 142.308594 19.410156 C 142.261719 19.503906 142.234375 19.59375 142.234375 19.679688 L 142.246094 19.828125 C 142.53125 20.546875 152.183594 44.671875 152.707031 45.980469 L 152.742188 46.015625 C 153.117188 46.421875 154.941406 47 156.140625 47 C 157.335938 47 159.058594 46.554688 159.433594 46.152344 L 159.464844 46.117188 L 170.15625 19.988281 Z M 170.175781 19.921875 "/>
<path style=" stroke:none;fill-rule:evenodd;fill:rgb(16.862745%,16.862745%,16.862745%);fill-opacity:1;" d="M 133.898438 36.664062 C 133.898438 38.542969 133.429688 39.890625 132.578125 40.464844 C 131.851562 40.902344 130.488281 41.417969 128.035156 41.417969 L 127.757812 41.417969 C 125.667969 41.417969 124.054688 41.03125 122.964844 40.269531 C 122.105469 39.667969 121.613281 38.839844 121.613281 37.996094 C 121.613281 35.433594 123.050781 34.96875 127.375 34.875 L 133.898438 34.875 Z M 139.914062 45.996094 C 139.945312 45.925781 139.980469 45.835938 139.980469 45.734375 L 139.980469 27.445312 C 139.941406 23.992188 138.828125 21.515625 136.664062 20.085938 C 134.59375 18.746094 131.804688 18.066406 128.375 18.066406 L 127.796875 18.066406 C 123.390625 18.066406 119.40625 19.636719 117.398438 22.171875 C 117.363281 22.21875 117.347656 22.261719 117.332031 22.320312 C 117.101562 23.054688 118.066406 24.175781 119.0625 24.90625 C 119.9375 25.546875 120.875 25.949219 121.515625 25.949219 C 121.65625 25.917969 122.246094 25.535156 122.367188 25.417969 C 123.039062 24.773438 124.855469 23.277344 127.261719 23.226562 L 128.304688 23.199219 C 130.296875 23.199219 132.242188 24.113281 133.136719 25.015625 C 133.664062 25.546875 133.914062 26.238281 133.902344 27.132812 L 133.902344 29.828125 L 125.191406 29.828125 C 122.164062 29.863281 119.824219 30.695312 118.246094 32.300781 C 116.660156 33.875 115.859375 35.882812 115.859375 38.273438 C 115.859375 40.773438 116.777344 42.851562 118.585938 44.449219 C 120.382812 46.15625 124.160156 46.949219 127.113281 46.980469 C 129.035156 46.980469 130.570312 46.742188 131.664062 46.273438 C 132.332031 46 132.902344 45.632812 133.367188 45.183594 L 133.902344 44.667969 L 133.902344 45.734375 C 133.902344 45.835938 133.933594 45.925781 133.96875 46 C 134.28125 46.6875 135.730469 47 136.941406 47 C 138.152344 47 139.597656 46.6875 139.914062 45.996094 Z M 139.914062 45.996094 "/>
<path style=" stroke:none;fill-rule:evenodd;fill:rgb(16.862745%,16.862745%,16.862745%);fill-opacity:1;" d="M 177.636719 29.046875 C 177.988281 26.296875 178.84375 25.109375 180.019531 24.167969 C 181.222656 23.207031 182.679688 22.976562 184.789062 22.902344 C 186.570312 22.835938 188.796875 23.582031 189.835938 24.597656 C 190.835938 25.609375 191.417969 27.082031 191.570312 28.980469 L 191.597656 29.316406 L 177.59375 29.398438 Z M 197.34375 42.363281 C 197.542969 41.605469 196.558594 40.464844 195.558594 39.730469 C 194.691406 39.09375 193.777344 38.707031 193.050781 38.671875 C 192.648438 38.671875 192.398438 38.882812 192.332031 38.949219 C 190.597656 40.519531 188.632812 41.316406 186.484375 41.316406 C 184.550781 41.316406 181.183594 40.644531 179.898438 39.386719 C 178.625 38.246094 177.832031 36.527344 177.734375 34.679688 L 177.71875 34.347656 L 178.050781 34.351562 C 178.234375 34.355469 196.1875 34.625 196.480469 34.625 C 196.769531 34.621094 197.035156 34.5 197.25 34.269531 C 198.058594 33.386719 198.097656 30.90625 197.996094 29.582031 L 197.992188 29.558594 C 197.957031 25.675781 196.722656 22.582031 194.332031 20.355469 C 191.863281 18.066406 187.640625 16.785156 183.320312 17.011719 C 181.578125 17.101562 180.242188 17.339844 178.988281 17.78125 C 177.507812 18.296875 176.160156 19.144531 174.972656 20.304688 C 173.804688 21.445312 172.835938 23.019531 172.09375 24.988281 C 171.351562 26.914062 170.976562 29.359375 170.976562 32.253906 C 170.976562 35.261719 171.40625 37.742188 172.257812 39.613281 C 173.046875 41.601562 174.089844 43.164062 175.363281 44.273438 C 176 44.796875 176.714844 45.257812 177.421875 45.59375 C 180.496094 47.230469 183.347656 47.429688 185.433594 47.578125 L 185.605469 47.589844 C 185.777344 47.59375 192.070312 47.757812 197.238281 42.59375 C 197.308594 42.496094 197.328125 42.417969 197.34375 42.363281 Z M 197.34375 42.363281 "/>
<path style=" stroke:none;fill-rule:evenodd;fill:rgb(16.862745%,16.862745%,16.862745%);fill-opacity:1;" d="M 106.660156 46.054688 C 107.203125 44.632812 114.679688 20.230469 114.90625 19.476562 L 114.925781 19.320312 C 114.925781 19.230469 114.902344 19.140625 114.851562 19.039062 C 114.726562 18.792969 113.617188 17.796875 111.667969 17.566406 C 111.457031 17.542969 111.238281 17.527344 111.023438 17.527344 C 109.660156 17.527344 108.171875 18.015625 107.902344 18.550781 L 107.875 18.625 L 102.609375 37.226562 L 95.785156 18.566406 C 95.589844 18.007812 94.238281 17.464844 93.058594 17.464844 C 91.839844 17.464844 90.351562 18.03125 90.164062 18.566406 L 89.980469 18.503906 L 89.980469 18.507812 L 90.164062 18.566406 L 84.296875 36.902344 L 78.664062 18.738281 L 78.617188 18.625 C 78.339844 18.097656 76.871094 17.464844 75.449219 17.464844 C 75.316406 17.464844 74.78125 17.515625 74.496094 17.542969 C 74.378906 17.550781 74.28125 17.5625 74.226562 17.566406 C 72.378906 17.714844 71.738281 18.613281 71.546875 18.992188 C 71.496094 19.09375 71.46875 19.1875 71.46875 19.277344 L 71.472656 19.347656 L 71.472656 19.367188 L 80.195312 46 C 80.460938 46.609375 82.625 47 84.007812 47 C 85.425781 47 87.710938 46.625 88.160156 46.035156 L 93.222656 29.25 L 99.234375 46.003906 C 99.480469 46.605469 101.664062 47 103.058594 47 C 104.617188 47 106.40625 46.667969 106.660156 46.054688 Z M 106.660156 46.054688 "/>
</g>
</svg>
